<?xml version="1.0" encoding="iso-8859-1"?>
<!-- Uploaded to: SVG Repo, www.svgrepo.com, Generator: SVG Repo Mixer Tools -->
<svg version="1.1" id="Layer_1" xmlns="http://www.w3.org/2000/svg" xmlns:xlink="http://www.w3.org/1999/xlink" 
	 viewBox="0 0 512 512" xml:space="preserve">
<circle style="fill:#006C70;" cx="256" cy="256" r="256"/>
<path style="fill:#023737;" d="M508.618,297.598L302.602,91.582l-91.998,6.966v174.69l-92.158,91.512l147.056,147.056
	C388.441,507.318,489.241,416.154,508.618,297.598z"/>
<rect x="142.222" y="170.667" style="fill:#FFE98F;" width="227.556" height="199.111"/>
<rect x="255.431" y="170.667" style="fill:#FFDA44;" width="114.347" height="199.111"/>
<path style="fill:#FFD300;" d="M170.667,369.778H130.3c-9.125,0-16.522-7.397-16.522-16.52V227.556h56.889V369.778z"/>
<path style="fill:#F4A200;" d="M381.702,369.778h-40.369V227.556h56.889v125.702C398.222,362.38,390.827,369.778,381.702,369.778z"
	/>
<path style="fill:#FFFFFF;" d="M271.046,239.569c0-5.835-3.325-10.892-8.182-13.388v-3.432c1.153-1.477,1.848-3.332,1.848-5.351
	c0-4.81-3.899-8.711-8.711-8.711c-4.811,0-8.711,3.899-8.711,8.711c0,2.02,0.693,3.874,1.848,5.351v3.432
	c-4.858,2.494-8.182,7.551-8.182,13.388H271.046z"/>
<path style="fill:#CCF8F3;" d="M262.863,226.183v-3.432c1.153-1.477,1.848-3.332,1.848-5.351c0-4.811-3.899-8.711-8.711-8.711
	c-0.197,0-0.381,0.045-0.574,0.059v30.823h15.619C271.046,233.734,267.721,228.678,262.863,226.183z"/>
<path style="fill:#EA348B;" d="M278.568,247.324h-45.134v-6.611c0-2.581,2.093-4.673,4.673-4.673h35.788
	c2.581,0,4.674,2.093,4.674,4.673v6.611H278.568z"/>
<path style="fill:#C11D68;" d="M278.568,240.712c0-2.581-2.093-4.674-4.674-4.674h-18.468v11.283h23.142V240.712z"/>
<path style="fill:#1FDBE2;" d="M279.717,339.473h-47.433c-4.039,0-7.313-3.274-7.313-7.313v-78.464c0-4.039,3.274-7.313,7.313-7.313
	h47.433c4.039,0,7.313,3.274,7.313,7.313v78.464C287.03,336.2,283.757,339.473,279.717,339.473z"/>
<path style="fill:#22BFBF;" d="M279.717,246.382h-24.292v93.091h24.292c4.039,0,7.313-3.274,7.313-7.313v-78.464
	C287.03,249.658,283.757,246.382,279.717,246.382z"/>
<path style="fill:#FFD300;" d="M291.843,350.384h-71.685c-11.624,0-21.047-9.423-21.047-21.045v-64.288h113.778v64.288
	C312.889,340.961,303.468,350.384,291.843,350.384z"/>
<path style="fill:#F4A200;" d="M255.426,265.051v85.333h36.417c11.624,0,21.045-9.423,21.045-21.045v-64.288H255.426z"/>
<path style="fill:#FF9811;" d="M199.111,113.202v85.909h28.444v-74.416c0-6.03,4.887-10.917,10.917-10.917h35.054
	c6.03,0,10.917,4.887,10.917,10.917v74.416h28.444v-85.909c0-15.393-12.478-27.869-27.87-27.869H226.98
	C211.589,85.333,199.111,97.811,199.111,113.202z"/>
<path style="fill:#FF5023;" d="M285.02,85.333h-29.594v28.444h18.101c6.03,0,10.918,4.887,10.918,10.917v74.416h28.444v-85.907
	C312.889,97.811,300.411,85.333,285.02,85.333z"/>
</svg>